<svg width="50" height="50" viewBox="0 0 50 50" fill="none" xmlns="http://www.w3.org/2000/svg">
<path fill-rule="evenodd" clip-rule="evenodd" d="M0 25C0 11.1929 11.1929 0 25 0C38.8071 0 50 11.1929 50 25C50 38.8071 38.8071 50 25 50C11.1929 50 0 38.8071 0 25Z" fill="#151400"/>
<path fill-rule="evenodd" clip-rule="evenodd" d="M25.0013 11.6663C21.3802 11.6663 20.9257 11.6821 19.5035 11.7468C18.084 11.8118 17.1151 12.0365 16.2674 12.3663C15.3904 12.7068 14.6465 13.1624 13.9054 13.9038C13.1637 14.6449 12.7081 15.3888 12.3665 16.2655C12.0359 17.1135 11.8109 18.0827 11.747 19.5016C11.6834 20.9239 11.6667 21.3786 11.6667 24.9997C11.6667 28.6209 11.6829 29.0739 11.7473 30.4962C11.8126 31.9156 12.0373 32.8845 12.3668 33.7323C12.7076 34.6093 13.1632 35.3532 13.9045 36.0943C14.6454 36.836 15.3893 37.2926 16.2657 37.6332C17.114 37.9629 18.0832 38.1876 19.5024 38.2526C20.9246 38.3174 21.3788 38.3332 24.9997 38.3332C28.6211 38.3332 29.0742 38.3174 30.4964 38.2526C31.9158 38.1876 32.8859 37.9629 33.7342 37.6332C34.6109 37.2926 35.3537 36.836 36.0945 36.0943C36.8362 35.3532 37.2917 34.6093 37.6334 33.7326C37.9612 32.8845 38.1862 31.9154 38.2529 30.4965C38.3167 29.0742 38.3334 28.6209 38.3334 24.9997C38.3334 21.3786 38.3167 20.9241 38.2529 19.5019C38.1862 18.0824 37.9612 17.1135 37.6334 16.2658C37.2917 15.3888 36.8362 14.6449 36.0945 13.9038C35.3528 13.1621 34.6112 12.7065 33.7334 12.3663C32.8834 12.0365 31.9139 11.8118 30.4944 11.7468C29.0722 11.6821 28.6194 11.6663 24.9972 11.6663H25.0013ZM23.8051 14.0697C24.1601 14.0692 24.5563 14.0697 25.0013 14.0697C28.5613 14.0697 28.9832 14.0825 30.3891 14.1464C31.6891 14.2059 32.3947 14.4231 32.8647 14.6056C33.4869 14.8472 33.9305 15.1361 34.3969 15.6028C34.8636 16.0695 35.1525 16.5139 35.3947 17.1362C35.5772 17.6056 35.7947 18.3112 35.8539 19.6112C35.9178 21.0168 35.9316 21.439 35.9316 24.9974C35.9316 28.5557 35.9178 28.978 35.8539 30.3835C35.7944 31.6835 35.5772 32.3891 35.3947 32.8585C35.153 33.4808 34.8636 33.9238 34.3969 34.3902C33.9302 34.8569 33.4872 35.1458 32.8647 35.3875C32.3952 35.5708 31.6891 35.7875 30.3891 35.8469C28.9835 35.9108 28.5613 35.9247 25.0013 35.9247C21.4409 35.9247 21.019 35.9108 19.6134 35.8469C18.3134 35.7869 17.6078 35.5697 17.1376 35.3872C16.5153 35.1455 16.0709 34.8566 15.6042 34.39C15.1375 33.9233 14.8487 33.4799 14.6064 32.8574C14.4239 32.388 14.2064 31.6824 14.1473 30.3824C14.0834 28.9768 14.0706 28.5546 14.0706 24.994C14.0706 21.4334 14.0834 21.0134 14.1473 19.6079C14.2067 18.3078 14.4239 17.6023 14.6064 17.1323C14.8481 16.51 15.1375 16.0656 15.6042 15.5989C16.0709 15.1323 16.5153 14.8434 17.1376 14.6011C17.6076 14.4178 18.3134 14.2011 19.6134 14.1414C20.8434 14.0859 21.3201 14.0692 23.8051 14.0664V14.0697ZM32.1186 16.2838C31.2352 16.2838 30.5186 16.9996 30.5186 17.8832C30.5186 18.7666 31.2352 19.4832 32.1186 19.4832C33.0019 19.4832 33.7186 18.7666 33.7186 17.8832C33.7186 16.9999 33.0019 16.2832 32.1186 16.2832V16.2838ZM25.0012 18.1533C21.2198 18.1533 18.1539 21.2192 18.1539 25.0006C18.1539 28.782 21.2198 31.8465 25.0012 31.8465C28.7826 31.8465 31.8474 28.782 31.8474 25.0006C31.8474 21.2192 28.7824 18.1533 25.0009 18.1533H25.0012ZM25.0013 20.5557C27.4558 20.5557 29.4458 22.5454 29.4458 25.0002C29.4458 27.4546 27.4558 29.4446 25.0013 29.4446C22.5465 29.4446 20.5568 27.4546 20.5568 25.0002C20.5568 22.5454 22.5465 20.5557 25.0013 20.5557Z" fill="white"/>
</svg>
