<svg width="50" height="50" viewBox="0 0 50 50" fill="none" xmlns="http://www.w3.org/2000/svg">
<path fill-rule="evenodd" clip-rule="evenodd" d="M0 25C0 11.1929 11.1929 0 25 0C38.8071 0 50 11.1929 50 25C50 38.8071 38.8071 50 25 50C11.1929 50 0 38.8071 0 25Z" fill="#151400"/>
<path d="M20.0526 15.3309C20.0235 14.0078 19.0773 13 17.5409 13C16.0045 13 15 14.0078 15 15.3309C15 16.6266 15.9748 17.6634 17.4826 17.6634H17.5113C19.0773 17.6634 20.0526 16.6266 20.0526 15.3309Z" fill="white"/>
<path d="M19.7569 19.5051H15.2656V32.9995H19.7569V19.5051Z" fill="white"/>
<path d="M30.7829 19.1884C33.7384 19.1884 35.9541 21.1175 35.9541 25.2624L35.9539 32.9996H31.4628V25.7801C31.4628 23.9668 30.8129 22.7294 29.187 22.7294C27.9462 22.7294 27.2071 23.5635 26.8825 24.3693C26.7638 24.658 26.7346 25.0603 26.7346 25.4636V33H22.2428C22.2428 33 22.302 20.7719 22.2428 19.5056H26.7346V21.417C27.3307 20.4982 28.3984 19.1884 30.7829 19.1884Z" fill="white"/>
</svg>
