<svg width="50" height="50" viewBox="0 0 50 50" fill="none" xmlns="http://www.w3.org/2000/svg">
<path fill-rule="evenodd" clip-rule="evenodd" d="M0 25C0 11.1929 11.1929 0 25 0C38.8071 0 50 11.1929 50 25C50 38.8071 38.8071 50 25 50C11.1929 50 0 38.8071 0 25Z" fill="#151400"/>
<path d="M34.9958 21.3055C34.8041 21.3234 34.6125 21.333 34.4208 21.3344C32.3167 21.3344 30.3539 20.2908 29.1998 18.5575V28.0116C29.1998 31.8706 26.0213 35 22.0985 35C18.1757 35 15 31.872 15 28.0116C15 24.1512 18.1785 21.0232 22.1013 21.0232C22.2496 21.0232 22.3951 21.037 22.5406 21.0453V24.4885C22.3951 24.472 22.251 24.4445 22.1013 24.4445C20.0993 24.4445 18.4779 26.0415 18.4779 28.0102C18.4779 29.9804 20.1007 31.576 22.1013 31.576C24.1032 31.576 25.8716 30.0244 25.8716 28.0543L25.9051 12H29.2529C29.5691 14.9545 31.9894 17.2619 35 17.4781V21.3055" fill="white"/>
</svg>
