<svg width="50" height="50" viewBox="0 0 50 50" fill="none" xmlns="http://www.w3.org/2000/svg">
<path fill-rule="evenodd" clip-rule="evenodd" d="M0 25C0 11.1929 11.1929 0 25 0C38.8071 0 50 11.1929 50 25C50 38.8071 38.8071 50 25 50C11.1929 50 0 38.8071 0 25Z" fill="#151400"/>
<path fill-rule="evenodd" clip-rule="evenodd" d="M25.918 20.3203L25.9705 21.1854L25.0961 21.0794C21.9135 20.6734 19.1331 19.2964 16.7723 16.9837L15.6182 15.8361L15.3209 16.6835C14.6914 18.5725 15.0936 20.5675 16.4051 21.9092C17.1046 22.6507 16.9472 22.7566 15.7406 22.3152C15.3209 22.174 14.9537 22.0681 14.9187 22.121C14.7963 22.2446 15.216 23.8512 15.5482 24.4867C16.0029 25.3694 16.9297 26.2345 17.9439 26.7464L18.8008 27.1525L17.7866 27.1701C16.8073 27.1701 16.7723 27.1878 16.8772 27.5585C17.227 28.7061 18.6084 29.9242 20.1473 30.4538L21.2315 30.8246L20.2872 31.3895C18.8882 32.2016 17.2445 32.6606 15.6007 32.6959C14.8138 32.7136 14.1667 32.7842 14.1667 32.8371C14.1667 33.0137 16.3002 34.0023 17.5417 34.3907C21.2665 35.5382 25.6907 35.0439 29.0132 33.0843C31.3739 31.6896 33.7347 28.9179 34.8364 26.2345C35.4309 24.8045 36.0255 22.1917 36.0255 20.9382C36.0255 20.1261 36.0779 20.0202 37.0572 19.0492C37.6343 18.4843 38.1764 17.8664 38.2813 17.6898C38.4562 17.3544 38.4387 17.3544 37.5468 17.6545C36.0604 18.1842 35.8506 18.1135 36.5851 17.3191C37.1272 16.7542 37.7742 15.7302 37.7742 15.4301C37.7742 15.3771 37.5119 15.4654 37.2146 15.6243C36.8998 15.8008 36.2003 16.0656 35.6757 16.2245L34.7314 16.5247L33.8746 15.9421C33.4024 15.6243 32.7379 15.2712 32.3882 15.1653C31.4963 14.9181 30.1324 14.9534 29.328 15.2359C27.1421 16.0303 25.7606 18.0782 25.918 20.3203Z" fill="white"/>
</svg>
