<svg width="50" height="50" viewBox="0 0 50 50" fill="none" xmlns="http://www.w3.org/2000/svg">
<path fill-rule="evenodd" clip-rule="evenodd" d="M0 25C0 11.1929 11.1929 0 25 0C38.8071 0 50 11.1929 50 25C50 38.8071 38.8071 50 25 50C11.1929 50 0 38.8071 0 25Z" fill="#151400"/>
<path d="M37.4534 18.8161C37.158 17.7129 36.2716 16.8419 35.1489 16.5371C33.125 16 25 16 25 16C25 16 16.875 16 14.8364 16.5371C13.7136 16.8274 12.842 17.6984 12.5318 18.8161C12 20.8194 12 25 12 25C12 25 12 29.1806 12.5466 31.1839C12.842 32.2871 13.7284 33.1581 14.8511 33.4629C16.875 34 25 34 25 34C25 34 33.125 34 35.1636 33.4629C36.2864 33.1726 37.158 32.3016 37.4682 31.1839C38 29.1806 38 25 38 25C38 25 38 20.8194 37.4534 18.8161ZM22.3409 28.8032V21.1968L29.1364 25L22.3409 28.8032Z" fill="white"/>
</svg>
